<?xml version="1.0" encoding="utf-8"?>
<!-- Generator: Adobe Illustrator 19.0.0, SVG Export Plug-In . SVG Version: 6.00 Build 0)  -->
<svg version="1.1" id="Layer_1" xmlns="http://www.w3.org/2000/svg" xmlns:xlink="http://www.w3.org/1999/xlink" x="0px" y="0px"
	 viewBox="160.4 145.7 529.2 175.2" style="enable-background:new 160.4 145.7 529.2 175.2;" xml:space="preserve">
<style type="text/css">
	.st0{fill:#C3282A;}
	.st1{fill:#FFFFFF;}
</style>
<g id="XMLID_15_">
	<path id="XMLID_29_" class="st0" d="M616.3,278.8h-98.4l5.9-25.7l120.5-107.4H682l-24.1,106.6h31.7l-16.5,26.5H652l-9.6,42.1h-35.7
		L616.3,278.8z M622.2,252.3l13.9-60.1l-67.7,60.1L622.2,252.3L622.2,252.3z"/>
</g>
<path id="XMLID_12_" class="st1" d="M492.7,145.7c25.1,19.8,41.2,50.5,41.2,85c0,37.6-19.2,70.8-48.3,90.2"/>
<path id="XMLID_5_" class="st1" d="M365.6,320.9c-29.1-19.4-48.3-52.6-48.3-90.2c0-34.5,16.1-65.2,41.2-85"/>
<g id="XMLID_30_">
	<g id="XMLID_31_">
		<path id="XMLID_8_" class="st0" d="M434.7,221.6c-5,0-9.1,4.1-9.1,9.1s4.1,9.1,9.1,9.1s9.1-4.1,9.1-9.1
			C443.8,225.7,439.7,221.6,434.7,221.6z"/>
	</g>
</g>
<g id="XMLID_27_">
	<g id="XMLID_28_">
		<path id="XMLID_7_" class="st0" d="M440.7,194v16.4c4.7,1.4,8.7,4.4,11.4,8.3l15.6-5.1C462.4,203.4,452.4,196,440.7,194z"/>
	</g>
</g>
<g id="XMLID_24_">
	<g id="XMLID_25_">
		<path id="XMLID_6_" class="st0" d="M471.4,225.1l-15.6,5.1c0,0.2,0,0.4,0,0.5c0,4.8-1.6,9.3-4.4,12.8l9.6,13.3
			c6.6-6.7,10.7-15.9,10.7-26.1C471.8,228.8,471.7,226.9,471.4,225.1z"/>
	</g>
</g>
<g id="XMLID_19_">
	<g id="XMLID_20_">
		<path id="XMLID_21_" class="st0" d="M434.7,151.4h-73.3c-3.3,0-6,2.7-6,6s2.7,6,6,6h31.3c-6.6,4.1-12.6,9.2-17.7,15.1h-41
			c-3.3,0-6,2.7-6,6s2.7,6,6,6h32.2c-7,11.8-10.9,25.5-10.9,40.2c0,17,5.4,32.9,14.6,45.8h-17.1c-3.3,0-6,2.7-6,6s2.7,6,6,6h27.6
			c3.8,3.5,7.9,6.7,12.2,9.4h-58c-3.3,0-6,2.7-6,6s2.7,6,6,6h100c43.7,0,79.3-35.6,79.3-79.3S478.4,151.4,434.7,151.4z M463.9,270.3
			c-0.1,0.1-0.2,0.2-0.3,0.3c-0.1,0.1-0.3,0.2-0.4,0.3c-8.1,5.7-17.9,9.1-28.5,9.1s-20.5-3.4-28.5-9.1c-0.1-0.1-0.3-0.2-0.4-0.3
			c-0.1-0.1-0.2-0.2-0.3-0.3c-12.1-9-19.9-23.4-19.9-39.5c0-27.1,22.1-49.2,49.2-49.2s49.2,22.1,49.2,49.2
			C483.9,246.9,476,261.3,463.9,270.3z"/>
	</g>
</g>
<g id="XMLID_16_">
	<g id="XMLID_17_">
		<path id="XMLID_3_" class="st0" d="M401.6,213.7l15.6,5.1c2.7-3.9,6.7-6.9,11.4-8.3V194C416.9,196,407,203.4,401.6,213.7z"/>
	</g>
</g>
<g id="XMLID_13_">
	<g id="XMLID_14_">
		<path id="XMLID_2_" class="st0" d="M441.7,250.7c-2.2,0.8-4.6,1.2-7,1.2c-2.5,0-4.8-0.4-7-1.2l-9.6,13.3c5,2.5,10.7,4,16.7,4
			s11.7-1.4,16.7-4L441.7,250.7z"/>
	</g>
</g>
<g id="XMLID_10_">
	<g id="XMLID_11_">
		<path id="XMLID_1_" class="st0" d="M413.5,230.7c0-0.2,0-0.4,0-0.5l-15.6-5.1c-0.3,1.8-0.4,3.7-0.4,5.6c0,10.2,4.1,19.4,10.7,26.1
			l9.6-13.3C415.1,240,413.5,235.6,413.5,230.7z"/>
	</g>
</g>
<g id="XMLID_9_">
	<path id="XMLID_22_" class="st0" d="M258.8,278.8h-98.4l5.9-25.7l120.5-107.4h37.6l-24.1,106.6H332l-16.5,26.5h-21.1l-9.6,42.1
		h-35.7L258.8,278.8z M264.7,252.3l13.9-60.1l-67.7,60.1L264.7,252.3L264.7,252.3z"/>
</g>
</svg>
